<svg width="526" height="1024" viewBox="0 0 526 1024" fill="none" xmlns="http://www.w3.org/2000/svg">
<path d="M33.1431 1053.76C135.668 1062.02 279.305 1292.17 364 1223C448.695 1153.83 743.224 1455.72 773.5 1339C803.776 1222.28 810.723 -278.654 773.5 -392.5C1217.47 -530.671 642.14 -182.71 553.499 -244.5L95 -375C174.334 -319.699 411.09 235.394 444.404 337.286C477.719 439.178 481.102 551.458 454.005 655.922C426.908 760.385 370.919 850.907 295.117 912.813C219.315 974.718 -150.24 1259.4 -242 1252L33.1431 1053.76Z" fill="url(#paint0_linear_241_47)"/>
<defs>
<linearGradient id="paint0_linear_241_47" x1="64" y1="-29.0001" x2="64" y2="1055" gradientUnits="userSpaceOnUse">
<stop stop-color="#98564F"/>
<stop offset="1" stop-color="#99202E"/>
</linearGradient>
</defs>
</svg>
